<?xml version="1.0" encoding="UTF-8"?><svg id="logos" xmlns="http://www.w3.org/2000/svg" viewBox="0 0 315.25 113.69"><defs><style>.cls-1{letter-spacing:.11em;}.cls-2{letter-spacing:.04em;}.cls-3{letter-spacing:.1em;}.cls-4{letter-spacing:.11em;}.cls-5{letter-spacing:.1em;}.cls-6{letter-spacing:.1em;}.cls-7{letter-spacing:.11em;}.cls-8,.cls-9,.cls-10{fill:#505150;}.cls-11{letter-spacing:.11em;}.cls-12{letter-spacing:-.02em;}.cls-13{letter-spacing:.11em;}.cls-14{letter-spacing:.11em;}.cls-15{letter-spacing:-.03em;}.cls-16{letter-spacing:.11em;}.cls-17{letter-spacing:.1em;}.cls-18{letter-spacing:0em;}.cls-19{letter-spacing:.11em;}.cls-20{letter-spacing:.12em;}.cls-21{letter-spacing:0em;}.cls-9{font-family:Roboto-Light, Roboto;font-size:9.41px;}.cls-22{letter-spacing:0em;}.cls-23{letter-spacing:.04em;}.cls-24{letter-spacing:0em;}.cls-10{font-family:RobotoSlab-Regular, 'Roboto Slab';font-size:36.83px;}.cls-25{letter-spacing:.11em;}.cls-26{letter-spacing:.12em;}.cls-27{letter-spacing:.11em;}.cls-28{letter-spacing:.12em;}</style></defs><text class="cls-10" transform="translate(49.51 70.33)"><tspan class="cls-15" x="0" y="0">P</tspan><tspan class="cls-21" x="22.47" y="0">E</tspan><tspan class="cls-24" x="45.63" y="0">A</tspan><tspan class="cls-22" x="72.65" y="0">R</tspan><tspan x="97.48" y="0">L </tspan><tspan class="cls-12" x="128.19" y="0">C</tspan><tspan class="cls-24" x="151.31" y="0">A</tspan><tspan class="cls-18" x="178.33" y="0">F</tspan><tspan x="201.02" y="0">E</tspan></text><g><text class="cls-9" transform="translate(110.26 30.09)"><tspan class="cls-13" x="0" y="0">E</tspan><tspan class="cls-7" x="6.38" y="0">S</tspan><tspan class="cls-2" x="13" y="0">T</tspan><tspan class="cls-28" x="18.96" y="0">A</tspan><tspan class="cls-25" x="25.99" y="0">BL</tspan><tspan class="cls-4" x="38.78" y="0">I</tspan><tspan class="cls-26" x="42.28" y="0">S</tspan><tspan class="cls-16" x="48.97" y="0">H</tspan><tspan class="cls-1" x="56.65" y="0">E</tspan><tspan class="cls-3" x="63.05" y="0">D </tspan><tspan class="cls-23" x="73.39" y="0">1</tspan><tspan class="cls-11" x="79.02" y="0">9</tspan><tspan class="cls-19" x="85.27" y="0">8</tspan><tspan class="cls-3" x="91.56" y="0">9</tspan></text><text class="cls-9" transform="translate(129.91 91.15)"><tspan class="cls-27" x="0" y="0">O</tspan><tspan class="cls-5" x="7.43" y="0">R</tspan><tspan class="cls-6" x="14.35" y="0">IGI</tspan><tspan class="cls-20" x="28.68" y="0">NA</tspan><tspan class="cls-14" x="43.52" y="0">L</tspan><tspan class="cls-17" x="49.56" y="0">S</tspan></text><rect class="cls-8" x="189.95" y="88.04" width="82.77" height=".87"/><rect class="cls-8" x="212.15" y="26.08" width="60.58" height=".8"/><rect class="cls-8" x="42.22" y="88.04" width="81.67" height=".87"/><rect class="cls-8" x="42.22" y="26.09" width="64.12" height=".79"/><path class="cls-8" d="M280.37,111.48H36.83l-.29-1.03c-4.49-16-17.35-28.23-33.54-31.92l-1.09-.25V36.67l1.09-.25c16.19-3.69,29.05-15.92,33.54-31.92l.29-1.03h243.54l.29,1.03c4.24,15.11,16.26,27.13,31.37,31.37l1.03,.29v42.64l-1.03,.29c-15.11,4.24-27.13,16.26-31.37,31.37l-.29,1.03Zm-241.42-2.81h239.3c4.65-15.22,16.77-27.34,31.99-31.99V38.27c-15.22-4.65-27.34-16.77-31.99-31.99H38.95c-4.92,16.13-17.89,28.49-34.23,32.61v37.16c16.34,4.12,29.31,16.48,34.23,32.61Z"/><path class="cls-8" d="M296.85,57.48c0-2.34-1.9-4.24-4.24-4.24s-4.24,1.9-4.24,4.24,1.9,4.24,4.24,4.24,4.24-1.9,4.24-4.24Z"/><path class="cls-8" d="M26.59,57.48c0-2.34-1.9-4.24-4.24-4.24s-4.24,1.9-4.24,4.24,1.9,4.24,4.24,4.24,4.24-1.9,4.24-4.24Z"/></g></svg>